<svg width="120" height="120" viewBox="0 0 120 120" fill="none" xmlns="http://www.w3.org/2000/svg">
<mask id="mask0_849_50" style="mask-type:alpha" maskUnits="userSpaceOnUse" x="2" y="4" width="118" height="116">
<rect x="2.92676" y="4.79999" width="117.073" height="115.2" fill="#D9D9D9"/>
</mask>
<g mask="url(#mask0_849_50)">
<path d="M12.6831 86.4V19.2C12.6831 17.84 13.1514 16.6992 14.088 15.7776C15.0213 14.8592 16.179 14.4 17.5612 14.4H80.9758C82.3579 14.4 83.5156 14.8592 84.449 15.7776C85.3855 16.6992 85.8538 17.84 85.8538 19.2V62.4C85.8538 63.76 85.3855 64.8992 84.449 65.8176C83.5156 66.7392 82.3579 67.2 80.9758 67.2H32.1953L12.6831 86.4ZM37.0733 91.2C35.6912 91.2 34.5319 90.7392 33.5953 89.8176C32.662 88.8992 32.1953 87.76 32.1953 86.4V76.8H95.6099V33.6H105.366C106.748 33.6 107.906 34.0592 108.839 34.9776C109.776 35.8992 110.244 37.04 110.244 38.4V110.4L90.7319 91.2H37.0733ZM76.0977 24H22.4392V63.24L28.1709 57.6H76.0977V24Z" fill="#5C0099"/>
</g>
<mask id="mask1_849_50" style="mask-type:alpha" maskUnits="userSpaceOnUse" x="0" y="0" width="118" height="116">
<rect width="117.073" height="115.2" fill="#D9D9D9"/>
</mask>
<g mask="url(#mask1_849_50)">
<path d="M9.75586 81.6V14.4C9.75586 13.04 10.2242 11.8992 11.1607 10.9776C12.0941 10.0592 13.2518 9.60001 14.6339 9.60001H78.0485C79.4307 9.60001 80.5884 10.0592 81.5217 10.9776C82.4583 11.8992 82.9266 13.04 82.9266 14.4V57.6C82.9266 58.96 82.4583 60.0992 81.5217 61.0176C80.5884 61.9392 79.4307 62.4 78.0485 62.4H29.2681L9.75586 81.6ZM34.1461 86.4C32.764 86.4 31.6046 85.9392 30.6681 85.0176C29.7347 84.0992 29.2681 82.96 29.2681 81.6V72H92.6827V28.8H102.439C103.821 28.8 104.979 29.2592 105.912 30.1776C106.849 31.0992 107.317 32.24 107.317 33.6V105.6L87.8046 86.4H34.1461ZM73.1705 19.2H19.512V58.44L25.2437 52.8H73.1705V19.2Z" fill="#FFB703"/>
</g>
</svg>
