<svg width="48" height="48" viewBox="0 0 48 48" fill="none" xmlns="http://www.w3.org/2000/svg">
<mask id="mask0_847_11" style="mask-type:alpha" maskUnits="userSpaceOnUse" x="0" y="0" width="48" height="48">
<rect width="48" height="48" fill="#D9D9D9"/>
</mask>
<g mask="url(#mask0_847_11)">
<path d="M6.19995 37.6V10.35C6.19995 9.84998 6.41662 9.45831 6.84995 9.17498C7.28328 8.89165 7.73328 8.84998 8.19995 9.04998L40.5 22.65C41.0666 22.9166 41.3499 23.3666 41.3499 24C41.3499 24.6333 41.0666 25.0666 40.5 25.3L8.19995 38.9C7.73328 39.1 7.28328 39.0666 6.84995 38.8C6.41662 38.5333 6.19995 38.1333 6.19995 37.6ZM9.09995 35.25L36.0999 23.95L9.09995 12.5V20.9L21 23.95L9.09995 26.9V35.25Z" fill="white"/>
</g>
</svg>
